<svg width="30" height="31" viewBox="0 0 30 31" fill="none" xmlns="http://www.w3.org/2000/svg">
<path d="M15 1.70001C7.39079 1.70001 1.19999 7.89081 1.19999 15.5C1.19999 17.876 1.81379 20.2124 2.97779 22.274L1.22219 28.538C1.16459 28.7438 1.22039 28.9646 1.36919 29.1176C1.48379 29.2358 1.63979 29.3 1.79999 29.3C1.84799 29.3 1.89659 29.294 1.94399 29.2826L8.48159 27.6632C10.4778 28.7348 12.726 29.3 15 29.3C22.6092 29.3 28.8 23.1092 28.8 15.5C28.8 7.89081 22.6092 1.70001 15 1.70001ZM21.942 20.3696C21.6468 21.1868 20.2308 21.9326 19.5504 22.0328C18.9396 22.1222 18.1668 22.1606 17.3184 21.8942C16.8042 21.7322 16.1442 21.5174 15.2988 21.1568C11.745 19.6412 9.4242 16.1078 9.2466 15.8744C9.0696 15.641 7.79999 13.9778 7.79999 12.2564C7.79999 10.535 8.715 9.68841 9.0402 9.33801C9.3654 8.98761 9.7488 8.90001 9.9852 8.90001C10.2216 8.90001 10.4574 8.90301 10.6644 8.91261C10.8822 8.92341 11.1744 8.83041 11.4618 9.51321C11.757 10.214 12.4656 11.9354 12.5532 12.1112C12.642 12.2864 12.7008 12.491 12.5832 12.7244C12.4656 12.9578 12.4068 13.1036 12.2292 13.3082C12.0516 13.5128 11.8572 13.7642 11.6976 13.9214C11.52 14.096 11.3358 14.285 11.5422 14.6354C11.7486 14.9858 12.4596 16.1312 13.5132 17.0588C14.8662 18.2504 16.008 18.62 16.362 18.7952C16.716 18.9704 16.923 18.941 17.1294 18.7076C17.3358 18.4736 18.015 17.6858 18.2508 17.336C18.4866 16.9862 18.723 17.0438 19.0482 17.1608C19.3734 17.2772 21.1152 18.1232 21.4692 18.2984C21.8232 18.4736 22.0596 18.5612 22.1484 18.707C22.2372 18.8522 22.2372 19.553 21.942 20.3696Z" fill="#2ECC71"/>
<path d="M21.4717 20.1997L21.4718 20.1996C21.6044 19.8327 21.669 19.4959 21.6911 19.243C21.7013 19.1261 21.7018 19.0336 21.6978 18.9689C21.6898 18.9642 21.6805 18.959 21.67 18.9533C21.6249 18.9289 21.5696 18.9018 21.4962 18.8666C21.4815 18.8596 21.4661 18.8522 21.4501 18.8446C21.3896 18.8157 21.3205 18.7827 21.2474 18.7465C21.073 18.6602 20.5514 18.406 20.0328 18.1589C19.4984 17.9043 19.0119 17.6789 18.8797 17.6316L18.8789 17.6313C18.7998 17.6028 18.7481 17.5862 18.708 17.577C18.7036 17.576 18.6996 17.5752 18.696 17.5745C18.6881 17.5838 18.6778 17.5971 18.6654 17.6155C18.4076 17.9979 17.704 18.812 17.5044 19.0384L17.5039 19.0388C17.3521 19.2105 17.1454 19.3669 16.8607 19.4011C16.5963 19.4328 16.3504 19.3474 16.1402 19.2433C16.0936 19.2203 16.0253 19.1912 15.9379 19.1539C15.4537 18.9476 14.3838 18.4918 13.1828 17.4341L21.4717 20.1997ZM21.4717 20.1997C21.383 20.4453 21.0772 20.7604 20.6233 21.0476C20.1826 21.3264 19.7256 21.5015 19.478 21.5381C18.9074 21.6216 18.218 21.6525 17.4686 21.4173C16.9608 21.2573 16.3185 21.0482 15.495 20.6969L15.4949 20.6969C12.3278 19.3462 10.1696 16.3092 9.71744 15.6729C9.6833 15.6249 9.65888 15.5905 9.6445 15.5716M21.4717 20.1997L9.6445 15.5716M11.4618 9.51321C11.2082 8.91068 10.9508 8.91227 10.7442 8.91355C10.7166 8.91372 10.69 8.91388 10.6644 8.91261C10.4574 8.90301 10.2216 8.90001 9.9852 8.90001C9.7488 8.90001 9.3654 8.98761 9.04019 9.33801C9.01951 9.3603 8.99643 9.3846 8.97136 9.41101C8.60228 9.79967 7.79999 10.6445 7.79999 12.2564C7.79999 13.9674 9.05426 15.6209 9.24326 15.87L9.2466 15.8744C9.25841 15.8899 9.27972 15.9201 9.31024 15.9633C9.73848 16.5691 11.9814 19.7421 15.2988 21.1568C16.1442 21.5174 16.8042 21.7322 17.3184 21.8942C18.1668 22.1606 18.9396 22.1222 19.5504 22.0328L11.4618 9.51321ZM11.4618 9.51321C11.5612 9.7491 11.7074 10.1006 11.861 10.4699M11.4618 9.51321L11.861 10.4699M9.6445 15.5716L9.64182 15.5681C9.55331 15.4514 9.21704 15.0081 8.90156 14.3947C8.57848 13.7666 8.29999 13.0031 8.29999 12.2564C8.29999 10.8454 8.98353 10.1247 9.33715 9.75194C9.36209 9.72565 9.38538 9.70109 9.40668 9.67814C9.62084 9.44738 9.86173 9.40001 9.9852 9.40001C10.2182 9.40001 10.4449 9.40299 10.6404 9.41204L9.6445 15.5716ZM11.861 10.4699C12.1637 11.1977 12.4951 11.9946 12.5532 12.1112L11.861 10.4699ZM0.740746 28.4031L0.740698 28.4032C0.635393 28.7795 0.737019 29.1844 1.01022 29.4657C1.22029 29.6823 1.50639 29.8 1.79999 29.8C1.88929 29.8 1.97713 29.7889 2.06092 29.7688L2.06421 29.7679L8.41676 28.1944C10.4426 29.2463 12.7086 29.8 15 29.8C22.8853 29.8 29.3 23.3854 29.3 15.5C29.3 7.61467 22.8853 1.20001 15 1.20001C7.11465 1.20001 0.699994 7.61467 0.699994 15.5C0.699994 17.892 1.30031 20.2454 2.4409 22.3369L0.740746 28.4031ZM21.6894 18.8967C21.6894 18.8967 21.6896 18.8974 21.6899 18.8989L21.6894 18.8967Z" stroke="black" stroke-opacity="0.3"/>
</svg>